<?xml version="1.0" encoding="UTF-8"?><svg id="Capa_2" xmlns="http://www.w3.org/2000/svg" viewBox="0 0 1904.39 1163.5"><defs><style>.cls-1{fill:#f5333f;}</style></defs><g id="Capa_1-2"><path d="M403.7,866.89c-14.87,26.81-37.7,48.44-68.48,64.89-30.79,16.46-69.01,24.68-114.66,24.68h-84.41v200.66H0v-558.97h220.56c44.59,0,82.27,7.7,113.07,23.09,30.78,15.4,53.87,36.63,69.27,63.7,15.39,27.07,23.09,58.13,23.09,93.16,0,32.38-7.44,61.98-22.29,88.78ZM268.34,829.87c12.74-12.2,19.11-29.46,19.11-51.75s-6.37-39.54-19.11-51.76c-12.74-12.2-32.12-18.31-58.13-18.31h-74.05v140.14h74.05c26,0,45.38-6.1,58.13-18.32Z"/><path class="cls-1" d="M490.88,645.54c-15.13-14.06-22.69-31.45-22.69-52.16s7.56-38.88,22.69-52.95c15.13-14.06,34.64-21.1,58.53-21.1s42.6,7.04,57.73,21.1c15.13,14.07,22.69,31.73,22.69,52.95s-7.56,38.1-22.69,52.16c-15.13,14.07-34.38,21.1-57.73,21.1s-43.39-7.03-58.53-21.1Z"/><rect x="480.93" y="712.82" width="136.16" height="444.3"/><path d="M947.53,1041.67v115.45h-69.27c-49.37,0-87.86-12.07-115.46-36.23-27.61-24.15-41.4-63.56-41.4-118.24v-176.77h-54.15v-113.07h54.15v-108.29h136.16v108.29h89.18v113.07h-89.18v178.36c0,13.28,3.19,22.83,9.56,28.67,6.37,5.85,16.98,8.76,31.85,8.76h48.57Z"/><path d="M1008.43,813.94c18.83-34.5,45.11-61.04,78.83-79.62,33.71-18.58,72.32-27.87,115.85-27.87,55.74,0,102.32,14.6,139.74,43.79,37.42,29.2,61.97,70.34,73.65,123.42h-144.92c-12.22-33.97-35.83-50.96-70.87-50.96-24.96,0-44.86,9.7-59.72,29.06-14.87,19.39-22.3,47.12-22.3,83.21s7.43,63.84,22.3,83.21c14.85,19.39,34.76,29.06,59.72,29.06,35.03,0,58.65-16.98,70.87-50.96h144.92c-11.69,52.03-36.37,92.9-74.05,122.62-37.7,29.74-84.14,44.59-139.34,44.59-43.53,0-82.15-9.28-115.85-27.87-33.71-18.58-59.99-45.11-78.83-79.62-18.85-34.5-28.27-74.85-28.27-121.03s9.42-86.51,28.27-121.03Z"/><path d="M1858.2,758.6c30.78,33.72,46.19,80.02,46.19,138.94v259.58h-135.36v-241.26c0-29.72-7.7-52.82-23.09-69.27-15.4-16.45-36.1-24.69-62.11-24.69s-46.72,8.24-62.11,24.69c-15.4,16.46-23.09,39.55-23.09,69.27v241.26h-136.16v-589.22h136.16v204.64c13.8-19.64,32.65-35.3,56.54-46.98,23.88-11.67,50.68-17.51,80.42-17.51,50.96,0,91.83,16.86,122.62,50.56Z"/><path d="M1445.52,290.36c-3.55-11.51-8.42-21.48-14.62-29.9-6.21-8.41-13.52-15.5-21.93-21.26-8.42-5.75-17.5-10.85-27.24-15.28-16.39-7.53-35.99-14.29-58.8-20.27-22.82-5.98-46.84-12.06-72.09-18.27-24.81-6.2-42.42-13.51-52.83-21.92-10.41-8.41-15.61-19.71-15.61-33.89,0-16.83,6.65-29.67,19.94-38.54,13.29-8.86,32.99-13.29,59.13-13.29,27.91,0,48.94,5.54,63.12,16.61,14.17,11.08,22.36,27.91,24.58,50.5h87.71c-.89-21.26-5.43-40.75-13.62-58.47-8.2-17.71-19.71-32.99-34.55-45.84-14.85-12.84-33.12-22.81-54.82-29.9-21.71-7.08-46.51-10.63-74.42-10.63s-50.61,3.32-70.76,9.97c-20.16,6.64-36.99,15.94-50.5,27.9-13.52,11.96-23.59,26.25-30.23,42.86-6.65,16.61-9.97,34.88-9.97,54.81,0,27.91,6.31,50.39,18.94,67.44,12.63,17.06,30.89,30.89,54.82,41.53,15.5,7.09,32.66,12.95,51.49,17.6,18.82,4.65,41.96,10.08,69.43,16.28,13.72,3.1,25.02,6.54,33.89,10.3,8.86,3.77,15.83,7.97,20.93,12.62,5.09,4.65,8.64,9.63,10.63,14.95,1.99,5.32,2.99,11.3,2.99,17.94,0,19.93-7.42,35.33-22.26,46.18-14.85,10.86-35.99,16.28-63.45,16.28-29.68,0-53.27-6.53-70.76-19.6-17.51-13.06-26.69-30.9-27.57-53.49h-89.03c.43,24.81,5.31,46.4,14.62,64.78,9.3,18.39,22.14,33.78,38.54,46.18,16.38,12.41,35.88,21.59,58.47,27.57,22.59,5.98,47.61,8.97,75.08,8.97,25.69,0,49.27-2.78,70.76-8.3,21.48-5.54,40.08-14.06,55.81-25.58,15.72-11.51,27.91-26.02,36.54-43.52,8.64-17.49,12.96-38.42,12.96-62.79,0-15.5-1.78-29-5.32-40.53"/><polygon points="772.85 14.62 639.96 14.62 560.23 338.2 480.5 14.62 344.96 14.62 344.96 455.8 430.67 455.8 430.67 154.82 512.39 456.22 604.09 456.22 686.47 153.49 686.47 455.8 772.07 455.8 772.85 453.61 772.85 14.62"/><path class="cls-1" d="M893.91,14.62l-156.69,438.99v2.2h96.89l112.23-342.53,109.69,342.53h100.33L1000.88,14.62h-106.97ZM945.74,113.62h.66-.66Z"/><polygon points="695.68 470.9 696.34 470.9 696.34 469.06 695.68 470.9"/><path d="M0,471.08v-163.61c0-5.32,1.86-9.83,5.58-13.55,3.71-3.72,8.23-5.58,13.55-5.58h52.58c27.97,0,48.88,7.44,62.69,22.31,13.82,15.59,20.72,38.61,20.72,69.06,0,16.3-2.48,31.01-7.43,44.1-5.67,13.46-13.11,23.73-22.31,30.81-7.79,6.02-16.12,10.27-24.97,12.75-8.5,2.49-21.43,3.72-38.79,3.72H0ZM30.02,444.78h36.91c17.35,0,36.73-7.91,44.89-17.12,7.78-8.5,15-26.69,15-47.94s-7.03-42.22-14.47-51.78c-7.09-9.56-25.05-14.34-40.63-14.34H30.02v131.19Z"/><path d="M168,471.08v-163.61c0-5.32,1.86-9.83,5.57-13.55,3.72-3.72,8.24-5.58,13.56-5.58h113.69v24.71h-102.26v49.26h77.83v8.9c0,5.32-1.87,6.52-5.59,10.24-3.72,3.71-8.23,5.58-13.54,5.58h-58.7v84.06h-30.55Z"/></g></svg>